<svg width="133" height="34" viewBox="0 0 133 34" fill="none" xmlns="http://www.w3.org/2000/svg">
<path d="M49.686 3.1L50.893 7.945H50.961L52.168 3.1H54.514L52.882 8.778L54.633 15H52.219L50.961 9.9H50.893L49.635 15H47.221L48.972 8.778L47.34 3.1H49.686ZM60.7345 15L60.3775 13.113H57.6915L57.3345 15H55.0225L57.3175 3.1H60.8365L63.0125 15H60.7345ZM59.0005 5.31L58.3375 9.271L57.9635 11.294H60.0885L59.6975 9.271L59.0345 5.31H59.0005ZM68.3375 9.56H68.2695H68.3375L69.2385 5.837L69.9695 3.1H72.0945L72.8595 15H70.6325L70.3095 8.506H70.2245L69.0005 13.3H67.6065L66.3825 8.506H66.2975L65.9745 15H63.7475L64.5125 3.1H66.6375L67.3685 5.837L68.2695 9.56H68.3375ZM76.5241 5.14V9.39H78.0371C78.6604 8.88 78.9721 8.132 78.9721 7.146C78.9721 6.72667 78.8871 6.33 78.7171 5.956C78.5584 5.582 78.3658 5.31 78.1391 5.14H76.5241ZM74.2291 15V3.1H78.8361C79.6068 3.44 80.2131 3.96133 80.6551 4.664C81.1084 5.36667 81.3351 6.18833 81.3351 7.129C81.3351 8.05833 81.1028 8.91967 80.6381 9.713C80.1734 10.5063 79.4878 11.0673 78.5811 11.396H76.5241V15H74.2291ZM82.5797 15V3.1H84.9087V13.028H88.4447V15H82.5797ZM89.6021 15V3.1H95.7051V5.14H91.9311V7.979H95.2971V9.951H91.9311V13.028H95.7731V15H89.6021ZM47.731 31V22.313H49.975V31H47.731ZM47.731 19.1H49.975V21.395H47.731V19.1ZM56.8221 31L53.6431 24.421L53.5581 24.455L53.6601 26.461V31H51.5181V19.1H53.2351L56.3631 25.934L56.4481 25.9L56.2611 23.809V19.1H58.4031V31H56.8221ZM61.1228 19.1H65.2028V21.14H61.9388L61.8878 21.242L64.6078 26.206C65.1631 27.2033 65.4408 27.9627 65.4408 28.484C65.4408 29.6287 65.0611 30.4673 64.3018 31H59.7968V29.028H63.3158L63.3668 28.926L60.3068 23.435C59.8648 22.6417 59.6438 21.9957 59.6438 21.497C59.6438 20.3183 60.1368 19.5193 61.1228 19.1ZM68.5466 21.14H65.9796V19.1H73.4256V21.14H70.8586V31H68.5466V21.14ZM74.4117 19.1H78.9337C79.6477 19.338 80.254 19.78 80.7527 20.426C81.2627 21.0607 81.5177 21.8427 81.5177 22.772C81.5177 24.2907 80.917 25.407 79.7157 26.121L81.4327 31H79.0527L77.6077 26.665H76.7067V31H74.4117V19.1ZM76.7067 21.14V24.761H78.1687C78.3614 24.7157 78.571 24.523 78.7977 24.183C79.0357 23.8317 79.1547 23.4237 79.1547 22.959C79.1547 22.4943 79.0527 22.0863 78.8487 21.735C78.656 21.3837 78.4634 21.1853 78.2707 21.14H76.7067ZM85.5207 29.028H86.9487C87.198 28.756 87.3737 28.484 87.4757 28.212C87.589 27.9287 87.6457 27.515 87.6457 26.971V19.1H89.9747V26.121C89.9747 26.699 89.9577 27.1523 89.9237 27.481C89.901 27.7983 89.833 28.1893 89.7197 28.654C89.527 29.4813 88.9943 30.2633 88.1217 31H84.3477C83.475 30.286 82.9423 29.504 82.7497 28.654C82.5797 27.9627 82.4947 27.1183 82.4947 26.121V19.1H84.8237V26.971C84.8237 27.515 84.8747 27.9287 84.9767 28.212C85.09 28.484 85.2713 28.756 85.5207 29.028ZM95.8629 25.56H95.7949H95.8629L96.7639 21.837L97.4949 19.1H99.6199L100.385 31H98.1579L97.8349 24.506H97.7499L96.5259 29.3H95.1319L93.9079 24.506H93.8229L93.4999 31H91.2729L92.0379 19.1H94.1629L94.8939 21.837L95.7949 25.56H95.8629ZM101.754 31V19.1H107.857V21.14H104.083V23.979H107.449V25.951H104.083V29.028H107.925V31H101.754ZM114.546 31L111.367 24.421L111.282 24.455L111.384 26.461V31H109.242V19.1H110.959L114.087 25.934L114.172 25.9L113.985 23.809V19.1H116.127V31H114.546ZM119.679 21.14H117.112V19.1H124.558V21.14H121.991V31H119.679V21.14ZM126.633 19.1H130.713V21.14H127.449L127.398 21.242L130.118 26.206C130.673 27.2033 130.951 27.9627 130.951 28.484C130.951 29.6287 130.571 30.4673 129.812 31H125.307V29.028H128.826L128.877 28.926L125.817 23.435C125.375 22.6417 125.154 21.9957 125.154 21.497C125.154 20.3183 125.647 19.5193 126.633 19.1Z" fill="white"/>
<path d="M9 2L15 12L21 2H28L20 17L28 32H21L15 22L9 32H2L10 17L2 2H9Z" fill="white"/>
<path d="M39.5 2L36.5 7.5H29.5L32.5 2H39.5Z" fill="white"/>
<path d="M28.5 10H35.5L32 17L39.5 32H32.5L25 17L28.5 10Z" fill="white"/>
</svg>
